<svg xmlns="http://www.w3.org/2000/svg" width="40" height="40" viewBox="0 0 40 40">
  <g transform="translate(4, 6) rotate(-25, 16, 16)">
    <!-- Glove Cuff Bottom -->
    <path d="M8,28 Q16,33 24,28 L27,31 Q16,37 5,31 Z" fill="white" stroke="#111" stroke-width="2.5" stroke-linejoin="round"/>
    <!-- Main Hand -->
    <path d="M12,12 L12,3 A3.5,3.5 0 0,1 19,3 L19,10 L19.5,10 L19.5,7 A3,3 0 0,1 25,7 L25,12 L25.5,12 A3,3 0 0,1 31,13 L31,20 A9,9 0 0,1 23,28 L11,28 C6,28 4,24 4,19 L7,14 A3.5,3.5 0 0,1 12,12 Z" fill="white" stroke="#111" stroke-width="2.5" stroke-linejoin="round"/>
    <!-- Cuff Line -->
    <path d="M7.5,28 Q16,31.5 24.5,28" fill="none" stroke="#111" stroke-width="2.5" stroke-linecap="round"/>
    <path d="M14,14 L14,20" fill="none" stroke="#111" stroke-width="2" stroke-linecap="round" opacity="0.1"/>
  </g>
</svg>
